<?xml version="1.0" standalone="no"?>
<!DOCTYPE svg PUBLIC "-//W3C//DTD SVG 20010904//EN"
 "http://www.w3.org/TR/2001/REC-SVG-20010904/DTD/svg10.dtd">
<svg version="1.0" xmlns="http://www.w3.org/2000/svg"
 width="512.000000pt" height="512.000000pt" viewBox="0 0 512.000000 512.000000"
 preserveAspectRatio="xMidYMid meet">
<metadata>
Created by potrace 1.11, written by Peter Selinger 2001-2013
</metadata>
<g transform="translate(0.000000,512.000000) scale(0.100000,-0.100000)"
fill="#000000" stroke="none">
<path d="M1355 4860 c-32 -12 -40 -27 -85 -165 -23 -71 -46 -139 -51 -150 -7
-15 -37 -106 -54 -165 -1 -3 -4 -12 -8 -20 -3 -8 -36 -107 -73 -220 -37 -113
-71 -211 -77 -217 -5 -7 -7 -13 -4 -13 3 0 -46 -154 -110 -342 -63 -189 -116
-350 -118 -358 -3 -8 -23 -69 -45 -135 -23 -66 -43 -127 -45 -135 -2 -8 -27
-82 -55 -165 -28 -82 -53 -157 -55 -165 -2 -8 -8 -27 -13 -42 -9 -22 -6 -33
18 -70 15 -23 43 -59 62 -79 19 -20 43 -47 53 -61 21 -25 98 -116 175 -203 25
-28 65 -75 90 -105 38 -46 82 -97 135 -156 6 -6 28 -32 50 -59 22 -26 45 -53
50 -59 9 -10 78 -90 254 -295 25 -30 51 -59 56 -65 8 -9 65 -75 215 -250 14
-16 32 -37 40 -46 8 -8 35 -40 60 -70 25 -30 52 -61 60 -70 8 -9 33 -38 55
-64 22 -27 51 -61 65 -76 14 -15 34 -38 45 -51 42 -50 320 -374 330 -385 5 -6
34 -39 63 -73 101 -114 160 -105 285 42 42 51 91 108 108 127 17 19 47 55 68
79 20 24 44 53 54 65 11 11 35 41 55 65 21 24 44 51 53 60 8 9 55 63 104 121
49 58 92 107 95 110 3 3 32 37 65 75 33 39 64 75 70 82 5 6 26 30 45 54 19 23
46 54 60 69 14 15 43 49 65 76 22 26 49 58 60 70 11 12 36 41 55 64 19 24 44
52 55 64 11 11 40 46 65 76 25 30 59 71 77 90 42 46 62 70 158 185 28 33 55
65 61 70 5 6 35 39 65 75 29 36 56 67 59 70 3 3 32 37 65 75 33 39 64 75 70
81 5 6 26 30 45 54 19 23 48 57 64 74 65 71 96 114 96 137 0 23 -29 113 -162
509 -33 96 -61 182 -63 190 -2 8 -4 16 -5 18 -2 1 -3 5 -4 10 -3 10 -26 84
-33 102 -3 8 -7 20 -8 25 -3 12 -64 193 -73 215 -3 8 -6 17 -7 20 -2 10 -67
205 -72 220 -3 8 -7 20 -9 25 -11 42 -217 654 -224 667 -6 10 -10 26 -10 36 0
10 -3 22 -7 26 -4 3 -8 13 -9 20 -1 8 -19 61 -39 119 -33 93 -41 107 -66 116
-19 7 -39 7 -57 0 -29 -10 -42 -33 -230 -429 -33 -69 -97 -201 -142 -295 -45
-93 -86 -180 -90 -191 -8 -21 -27 -26 -97 -24 -10 0 -47 0 -83 -1 -36 0 -72 0
-80 0 -8 1 -44 1 -80 0 -36 0 -72 0 -80 0 -8 1 -44 1 -80 0 -36 0 -69 0 -75 0
-43 2 -302 2 -310 1 -5 -2 -14 -2 -18 -1 -8 1 -208 2 -237 0 -8 0 -64 1 -123
1 -102 2 -109 3 -117 25 -5 12 -45 98 -91 191 -121 251 -192 398 -194 404 -5
23 -145 298 -156 306 -22 18 -52 23 -74 14z m177 -1883 c77 -24 178 -87 238
-146 60 -60 120 -128 120 -135 0 -2 16 -28 36 -57 30 -44 80 -144 134 -264 15
-33 79 -228 83 -255 3 -14 12 -50 21 -80 8 -30 17 -66 20 -80 3 -14 7 -36 11
-50 15 -69 17 -77 29 -150 3 -14 5 -25 6 -25 1 0 3 -11 5 -25 1 -14 7 -58 14
-98 6 -40 13 -91 16 -115 3 -23 7 -58 10 -77 2 -19 7 -60 10 -90 3 -30 8 -66
10 -80 2 -14 7 -54 10 -90 12 -131 15 -163 29 -304 3 -33 -1 -44 -23 -67 -21
-21 -34 -26 -57 -21 -16 3 -34 11 -41 17 -14 14 -127 146 -193 225 -25 30 -52
61 -60 70 -8 9 -51 59 -95 111 -44 51 -89 105 -101 119 -12 14 -54 63 -94 110
-40 47 -95 111 -123 143 -27 32 -66 78 -86 102 -48 58 -192 227 -206 241 -5 6
-30 35 -55 64 -51 61 -229 269 -245 286 -5 6 -19 22 -30 35 -95 113 -124 148
-150 177 -80 90 -73 116 69 258 147 145 302 237 451 267 43 8 192 -2 237 -16z
m2354 -2 c78 -22 162 -65 243 -122 80 -57 233 -208 256 -253 17 -33 14 -72 -8
-95 -7 -6 -32 -36 -57 -65 -25 -30 -52 -61 -60 -70 -8 -9 -41 -47 -73 -85 -33
-39 -68 -81 -80 -95 -12 -14 -46 -54 -77 -90 -30 -36 -57 -67 -60 -70 -3 -3
-28 -32 -55 -65 -28 -33 -64 -76 -82 -95 -17 -19 -42 -48 -55 -65 -12 -16 -32
-39 -43 -51 -11 -12 -29 -32 -40 -45 -46 -57 -120 -144 -125 -149 -3 -3 -32
-36 -64 -75 -33 -38 -65 -74 -70 -80 -6 -5 -27 -30 -46 -55 -19 -24 -42 -52
-50 -60 -8 -9 -37 -42 -65 -75 -27 -32 -68 -80 -90 -105 -59 -68 -124 -144
-204 -240 -79 -94 -113 -116 -152 -97 -31 16 -49 54 -44 92 5 30 11 91 20 195
3 30 8 73 11 94 3 22 7 63 9 90 4 48 8 90 20 176 5 36 8 64 20 160 3 30 8 62
10 70 2 8 7 31 10 50 3 19 10 58 15 85 5 28 11 61 14 75 2 14 20 92 40 174 64
259 145 459 253 624 57 88 188 227 238 252 17 8 32 17 35 20 14 14 106 48 175
64 32 8 180 -4 231 -19z"/>
<path d="M1494 2376 c-153 -41 -167 -241 -21 -300 63 -27 140 -5 183 51 91
119 -19 287 -162 249z"/>
<path d="M3575 2383 c-95 -18 -151 -86 -143 -173 6 -60 39 -107 92 -131 132
-58 265 75 210 211 -22 53 -106 102 -159 93z"/>
</g>
</svg>
